<?xml version="1.0" standalone="no"?><svg xmlns="http://www.w3.org/2000/svg" viewBox="0 0 1440 320"><path fill="#181f2a" fill-opacity="1" d="M0,0L12.6,48C25.3,96,51,192,76,197.3C101.1,203,126,117,152,90.7C176.8,64,202,96,227,117.3C252.6,139,278,149,303,138.7C328.4,128,354,96,379,74.7C404.2,53,429,43,455,58.7C480,75,505,117,531,133.3C555.8,149,581,139,606,112C631.6,85,657,43,682,69.3C707.4,96,733,192,758,234.7C783.2,277,808,267,834,218.7C858.9,171,884,85,909,90.7C934.7,96,960,192,985,218.7C1010.5,245,1036,203,1061,170.7C1086.3,139,1112,117,1137,106.7C1162.1,96,1187,96,1213,112C1237.9,128,1263,160,1288,186.7C1313.7,213,1339,235,1364,202.7C1389.5,171,1415,85,1427,42.7L1440,0L1440,0L1427.4,0C1414.7,0,1389,0,1364,0C1338.9,0,1314,0,1288,0C1263.2,0,1238,0,1213,0C1187.4,0,1162,0,1137,0C1111.6,0,1086,0,1061,0C1035.8,0,1011,0,985,0C960,0,935,0,909,0C884.2,0,859,0,834,0C808.4,0,783,0,758,0C732.6,0,707,0,682,0C656.8,0,632,0,606,0C581.1,0,556,0,531,0C505.3,0,480,0,455,0C429.5,0,404,0,379,0C353.7,0,328,0,303,0C277.9,0,253,0,227,0C202.1,0,177,0,152,0C126.3,0,101,0,76,0C50.5,0,25,0,13,0L0,0Z"></path></svg>