<?xml version="1.0" standalone="no"?><svg xmlns="http://www.w3.org/2000/svg" viewBox="0 0 1440 320"><path fill="#ffffff" fill-opacity="1" d="M0,0L12.6,48C25.3,96,51,192,76,197.3C101.1,203,126,117,152,90.7C176.8,64,202,96,227,117.3C252.6,139,278,149,303,138.7C328.4,128,354,96,379,74.7C404.2,53,429,43,455,58.7C480,75,505,117,531,133.3C555.8,149,581,139,606,112C631.6,85,657,43,682,69.3C707.4,96,733,192,758,234.7C783.2,277,808,267,834,218.7C858.9,171,884,85,909,90.7C934.7,96,960,192,985,218.7C1010.5,245,1036,203,1061,170.7C1086.3,139,1112,117,1137,106.7C1162.1,96,1187,96,1213,112C1237.9,128,1263,160,1288,186.7C1313.7,213,1339,235,1364,202.7C1389.5,171,1415,85,1427,42.7L1440,0L1440,320L1427.4,320C1414.7,320,1389,320,1364,320C1338.9,320,1314,320,1288,320C1263.2,320,1238,320,1213,320C1187.4,320,1162,320,1137,320C1111.6,320,1086,320,1061,320C1035.8,320,1011,320,985,320C960,320,935,320,909,320C884.2,320,859,320,834,320C808.4,320,783,320,758,320C732.6,320,707,320,682,320C656.8,320,632,320,606,320C581.1,320,556,320,531,320C505.3,320,480,320,455,320C429.5,320,404,320,379,320C353.7,320,328,320,303,320C277.9,320,253,320,227,320C202.1,320,177,320,152,320C126.3,320,101,320,76,320C50.5,320,25,320,13,320L0,320Z"></path></svg>